HIERARCHY
ROOT SpineBase
{
  OFFSET 0.000000 0.000000 0.000000
  CHANNELS 6 Xposition Yposition Zposition Zrotation Xrotation Yrotation
  JOINT SpineMid
  {
    OFFSET 0.000000 27.425963 0.000000
    CHANNELS 3 Zrotation Xrotation Yrotation
    JOINT SpineShoulder
    {
      OFFSET 0.164223 20.562621 -0.755278
      CHANNELS 3 Zrotation Xrotation Yrotation
      JOINT Neck
      {
        OFFSET 0.126032 6.870457 -0.551566
        CHANNELS 3 Zrotation Xrotation Yrotation
        JOINT Head
        {
          OFFSET 3.266072 13.109754 -0.774951
          CHANNELS 3 Zrotation Xrotation Yrotation
          End Site
          {
            OFFSET 0 0 0
          }
        }
      }
      JOINT ShoulderLeft
      {
        OFFSET -10.660527 -0.965561 -10.597147
        CHANNELS 3 Zrotation Xrotation Yrotation
        JOINT ElbowLeft
        {
          OFFSET -0.686257 -22.031798 -7.227851
          CHANNELS 3 Zrotation Xrotation Yrotation
          JOINT WristLeft
          {
            OFFSET -13.440422 -17.221928 0.074507
            CHANNELS 3 Zrotation Xrotation Yrotation
            JOINT HandLeft
            {
              OFFSET 2.845019 -4.478633 -0.885730
              CHANNELS 3 Zrotation Xrotation Yrotation
              JOINT HandTipLeft
              {
                OFFSET 0.556535 -3.848225 -1.201012
                CHANNELS 3 Zrotation Xrotation Yrotation
                End Site
                {
                  OFFSET 0 0 0
                }
              }
              JOINT ThumbLeft
              {
                OFFSET -1.864876 2.719731 -2.022059
                CHANNELS 3 Zrotation Xrotation Yrotation
                End Site
                {
                  OFFSET 0 0 0
                }
              }
            }
          }
        }
      }
      JOINT ShoulderRight
      {
        OFFSET 13.154452 -2.357558 9.009799
        CHANNELS 3 Zrotation Xrotation Yrotation
        JOINT ElbowRight
        {
          OFFSET 4.581578 -24.595894 -5.451151
          CHANNELS 3 Zrotation Xrotation Yrotation
          JOINT WristRight
          {
            OFFSET 9.945813 -9.631787 -15.140012
            CHANNELS 3 Zrotation Xrotation Yrotation
            JOINT HandRight
            {
              OFFSET 0.067926 -1.717199 -4.821797
              CHANNELS 3 Zrotation Xrotation Yrotation
              JOINT HandTipRight
              {
                OFFSET 1.399786 -3.199338 -2.404891
                CHANNELS 3 Zrotation Xrotation Yrotation
                End Site
                {
                  OFFSET 0 0 0
                }
              }
              JOINT ThumbRight
              {
                OFFSET 2.496748 -2.845250 0.579935
                CHANNELS 3 Zrotation Xrotation Yrotation
                End Site
                {
                  OFFSET 0 0 0
                }
              }
            }
          }
        }
      }
    }
  }
  JOINT HipLeft
  {
    OFFSET -5.051690 1.383023 -6.820900
    CHANNELS 3 Zrotation Xrotation Yrotation
    JOINT KneeLeft
    {
      OFFSET 20.221735 0.914628 -27.798133
      CHANNELS 3 Zrotation Xrotation Yrotation
      JOINT AnkleLeft
      {
        OFFSET 8.102200 -33.542819 5.493852
        CHANNELS 3 Zrotation Xrotation Yrotation
        JOINT FootLeft
        {
          OFFSET -7.799370 -3.337897 -7.565724
          CHANNELS 3 Zrotation Xrotation Yrotation
          End Site
          {
            OFFSET 0 0 0
          }
        }
      }
    }
  }
  JOINT HipRight
  {
    OFFSET 6.303077 0.581391 0.699765
    CHANNELS 3 Zrotation Xrotation Yrotation
    JOINT KneeRight
    {
      OFFSET 31.927856 0.914423 -8.491969
      CHANNELS 3 Zrotation Xrotation Yrotation
      JOINT AnkleRight
      {
        OFFSET -0.483770 -32.277276 -7.839059
        CHANNELS 3 Zrotation Xrotation Yrotation
        JOINT FootRight
        {
          OFFSET 6.213711 -4.188572 -9.279367
          CHANNELS 3 Zrotation Xrotation Yrotation
          End Site
          {
            OFFSET 0 0 0
          }
        }
      }
    }
  }
}
MOTION
Frames: 13
Frame Time: 0.033333
-85.619721 38.426815 402.766796 -0.000000 0.000000 -33.517922 -0.000000 0.000000 33.517922 -0.000000 0.000000 0.000000 -0.000000 0.000000 0.000000 0.000000 0.000000 0.000000 -0.000000 0.000000 0.000000 -0.000000 0.000000 0.000000 -0.000000 0.000000 0.000000 -0.000000 0.000000 0.000000 0.000000 0.000000 0.000000 0.000000 0.000000 0.000000 -0.000000 0.000000 0.000000 -0.000000 0.000000 0.000000 -0.000000 0.000000 0.000000 -0.000000 0.000000 0.000000 0.000000 0.000000 0.000000 0.000000 0.000000 0.000000 -0.000000 0.000000 33.517922 -0.000000 0.000000 0.000000 -0.000000 0.000000 0.000000 0.000000 0.000000 0.000000 -0.000000 0.000000 33.517922 -0.000000 0.000000 0.000000 -0.000000 0.000000 0.000000 0.000000 0.000000 0.000000
-85.668357 38.240725 402.678662 -0.057369 -0.028662 -33.200205 0.032310 0.055396 33.200175 -0.000000 0.000000 0.000000 -0.743682 -0.738815 0.135039 0.000000 0.000000 0.000000 -0.000000 0.000000 0.000000 -2.334490 -0.806896 0.593725 1.180600 4.242856 1.854355 -2.906503 -17.133575 -4.143769 0.000000 0.000000 0.000000 0.000000 0.000000 0.000000 -0.825807 -0.639265 0.059492 0.012671 -1.251094 -0.772785 2.027275 -10.625214 -4.323363 -4.644214 11.812221 7.535693 0.000000 0.000000 0.000000 0.000000 0.000000 0.000000 0.032310 0.055396 33.200175 -0.000000 0.000000 0.000000 -0.427890 2.506011 -4.606111 0.000000 0.000000 0.000000 0.032310 0.055396 33.200175 -0.000000 0.000000 0.000000 -0.507059 -0.555108 0.302619 0.000000 0.000000 0.000000
-85.715358 38.069643 402.599857 -0.114828 -0.055942 -32.882947 0.066059 0.109322 32.882828 -0.000000 0.000000 0.000000 -1.383346 -1.367923 0.241621 0.000000 0.000000 0.000000 -0.000000 0.000000 0.000000 -4.014648 -1.437916 1.026313 1.363384 8.196551 3.982607 -7.133005 -30.385502 -9.490392 0.000000 0.000000 0.000000 0.000000 0.000000 0.000000 -1.440907 -1.184477 0.084213 -0.010207 -2.077604 -1.287956 3.036560 -20.341245 -8.734795 -9.773227 22.163781 15.871218 0.000000 0.000000 0.000000 0.000000 0.000000 0.000000 0.066059 0.109322 32.882828 -0.000000 0.000000 0.000000 0.112099 4.756838 -10.394011 0.000000 0.000000 0.000000 0.066059 0.109322 32.882828 -0.000000 0.000000 0.000000 -0.789988 -0.760012 0.633216 0.000000 0.000000 0.000000
-85.760723 37.913568 402.530380 -0.172435 -0.081880 -32.566111 0.101250 0.161823 32.565844 -0.000000 0.000000 0.000000 -1.917122 -1.883988 0.322884 0.000000 0.000000 0.000000 -0.000000 0.000000 0.000000 -5.009712 -1.866907 1.308908 0.352639 11.783519 6.450083 -13.022818 -40.594456 -16.500226 0.000000 0.000000 0.000000 0.000000 0.000000 0.000000 -1.835620 -1.630838 0.077404 -0.088861 -2.556170 -1.561810 3.183513 -27.917952 -12.958561 -14.954637 30.332377 23.902942 0.000000 0.000000 0.000000 0.000000 0.000000 0.000000 0.101250 0.161823 32.565844 -0.000000 0.000000 0.000000 1.759060 6.527602 -17.564644 0.000000 0.000000 0.000000 0.795202 0.913937 32.705063 -0.990308 -0.257861 -0.147962 -0.845135 -0.606393 0.990718 0.000000 0.000000 0.000000
-85.804452 37.772501 402.470231 -0.230246 -0.106512 -32.249664 0.137891 0.212941 32.249194 -0.000000 0.000000 0.000000 -2.343679 -2.284640 0.381560 0.000000 0.000000 0.000000 -0.000000 0.000000 0.000000 -5.304096 -2.078204 1.450206 -2.122422 14.890629 9.341633 -21.208531 -48.336347 -25.861387 0.000000 0.000000 0.000000 0.000000 0.000000 0.000000 -1.998750 -1.973472 0.041244 -0.245363 -2.742698 -1.605945 2.814129 -33.054274 -16.846655 -19.552268 36.609817 30.671601 0.000000 0.000000 0.000000 0.000000 0.000000 0.000000 0.194983 0.915405 32.766444 -1.302946 0.134036 -0.501734 5.437206 6.768120 -26.124716 0.000000 0.000000 0.000000 1.030082 1.170823 32.383804 -1.266456 -0.330931 -0.149042 -0.676416 -0.096712 1.368991 0.000000 0.000000 0.000000
-85.846545 37.646441 402.419410 -0.288316 -0.129872 -31.933577 0.175991 0.262717 31.932847 -0.000000 0.000000 0.000000 -2.662174 -2.568361 0.419897 0.000000 0.000000 0.000000 -0.000000 0.000000 0.000000 -4.893403 -2.065303 1.453871 -6.510659 17.316184 12.780946 -32.485128 -53.632944 -38.452717 0.000000 0.000000 0.000000 0.000000 0.000000 0.000000 -1.917157 -2.207165 -0.023359 -0.503179 -2.676029 -1.427378 2.292846 -35.905692 -20.308183 -22.992629 41.647504 35.513011 0.000000 0.000000 0.000000 0.000000 0.000000 0.000000 0.252795 1.177555 32.532393 -1.754260 0.249156 -0.573339 9.522921 6.125997 -35.775579 0.000000 0.000000 0.000000 1.249308 1.403923 32.037750 -1.698466 -1.244848 -0.071553 -0.111964 1.603285 1.703333 0.000000 0.000000 0.000000
-85.883986 37.510918 402.379917 -0.338746 -0.128422 -31.436221 0.222050 0.286244 31.435286 -0.000000 0.000000 0.000000 -2.866176 -2.744942 0.442453 0.000000 0.000000 0.000000 -0.000000 0.000000 0.000000 -3.990204 -1.920007 1.376804 -22.953474 25.175752 27.955770 -76.305242 -48.448961 -85.210521 0.000000 0.000000 0.000000 0.000000 0.000000 0.000000 -2.351317 -2.199991 0.066725 -1.588942 -5.091632 -1.850630 2.084869 -39.616949 -23.964296 -30.280758 50.069251 43.847818 0.000000 0.000000 0.000000 0.000000 0.000000 0.000000 0.326888 1.460637 32.065847 -2.794533 0.613447 -0.618182 17.094144 3.639520 -54.183237 0.000000 0.000000 0.000000 1.523966 1.648662 31.458977 -1.951716 -1.369260 -0.010663 1.454107 4.534686 2.185144 0.000000 0.000000 0.000000
-85.921089 37.406889 402.349691 -0.395022 -0.146656 -31.076841 0.262630 0.329510 31.075580 -0.000000 0.000000 0.000000 -2.962660 -2.880971 0.464524 0.000000 0.000000 0.000000 -0.000000 0.000000 0.000000 -0.376095 -1.037658 0.802703 -53.426880 15.437378 38.376087 -70.614651 -38.862891 -97.941256 0.000000 0.000000 0.000000 0.000000 0.000000 0.000000 -1.763946 -2.295960 -0.072645 -2.379484 -4.713981 -0.934793 0.403585 -43.151869 -27.206338 -35.598356 58.731909 48.768207 0.000000 0.000000 0.000000 0.000000 0.000000 0.000000 0.388947 1.674052 31.720393 -3.602778 0.930683 -0.641373 22.199936 -2.946505 -63.392376 0.000000 0.000000 0.000000 1.744728 1.861887 31.036599 -2.109409 -1.437662 0.025312 3.380173 7.961267 2.418070 0.000000 0.000000 0.000000
-85.958792 37.302178 402.315849 -0.468461 -0.165363 -30.796511 0.317747 0.381888 30.794776 -0.000000 0.000000 0.000000 -4.043377 -3.598209 0.524961 0.000000 0.000000 0.000000 -0.450695 0.827193 0.125033 1.579367 -1.243880 0.232115 -81.231219 -6.618017 19.368130 -32.862122 -40.665314 -72.365659 0.000000 0.000000 0.000000 0.000000 0.000000 0.000000 -0.253842 -2.555817 -0.427855 -2.828873 -1.876341 0.781065 2.092199 -34.972176 -28.871452 -33.350327 50.523745 48.595113 0.000000 0.000000 0.000000 0.000000 0.000000 0.000000 0.471155 1.964506 31.434336 -3.685584 0.882958 -0.600600 24.538907 -9.729944 -65.849342 0.000000 0.000000 0.000000 1.930770 2.034658 30.607232 -2.230355 -1.439918 0.155086 3.334206 8.448912 3.065207 0.000000 0.000000 0.000000
-86.001227 37.250603 402.297155 -0.559210 -0.210815 -30.634605 0.373753 0.466336 30.632055 -0.000000 0.000000 0.000000 -3.995944 -3.277732 0.461339 0.000000 0.000000 0.000000 -0.503962 0.959463 0.139265 3.987259 -1.122370 0.072444 -60.673529 -12.040533 -3.334051 -33.493979 -43.443405 -28.345796 0.000000 0.000000 0.000000 0.000000 0.000000 0.000000 1.833266 -2.782235 -0.882277 -1.337529 5.610244 2.866463 5.079640 -20.093481 -30.973544 -22.860828 41.487340 40.139684 0.000000 0.000000 0.000000 0.000000 0.000000 0.000000 0.559550 2.355226 31.326987 -3.613933 0.819355 -0.581555 25.375197 -14.795542 -62.720977 0.000000 0.000000 0.000000 2.015765 2.141062 30.243687 -2.261959 -0.618921 0.338784 2.412901 6.119268 3.140315 0.000000 0.000000 0.000000
-86.060287 37.221948 402.297662 -0.652863 -0.245963 -30.652944 0.436259 0.544435 30.649470 -0.000000 0.000000 0.000000 -2.758510 -2.047225 0.295609 0.000000 0.000000 0.000000 -0.776199 0.826647 0.233894 6.407902 -0.848803 -0.113735 -46.920658 -3.509202 6.555051 -37.418339 -8.898963 13.348759 0.000000 0.000000 0.000000 0.000000 0.000000 0.000000 4.748615 -2.077457 -1.348843 1.440662 15.746774 3.777879 6.741285 -1.630777 -30.094502 -5.128277 25.712601 27.779529 0.000000 0.000000 0.000000 0.000000 0.000000 0.000000 0.649148 2.746382 31.345979 -3.081239 0.539250 -0.479881 25.082714 -18.341725 -53.306573 0.000000 0.000000 0.000000 2.042663 2.186348 30.049701 -2.212569 -0.616032 0.549588 2.442660 6.080520 3.033183 0.000000 0.000000 0.000000
-86.113771 37.274876 402.315276 -0.699243 -0.257388 -30.611658 0.470754 0.577568 30.607715 -0.000000 0.000000 0.000000 -0.000000 0.000000 0.000000 0.000000 0.000000 0.000000 -0.958361 0.558877 0.301117 7.670948 -0.682949 -0.115172 -41.099947 -0.925074 7.459666 34.751759 12.530723 -4.191941 0.000000 0.000000 0.000000 0.000000 0.000000 0.000000 8.476751 -0.793904 -1.947095 6.021924 27.862451 2.124446 -1.145342 2.467196 -24.703466 11.773591 15.016064 17.877420 0.000000 0.000000 0.000000 0.000000 0.000000 0.000000 0.691209 2.845205 31.317380 -2.581882 0.414751 -0.418067 22.123978 -16.927240 -34.870873 0.000000 0.000000 0.000000 1.895684 2.037963 29.768630 -1.961872 -0.559635 0.796977 2.467176 6.062068 2.961384 0.000000 0.000000 0.000000
-86.163616 37.400916 402.333719 -0.690278 -0.244097 -30.695915 0.468978 0.562255 30.692143 -0.000000 0.000000 0.000000 2.432929 2.492976 -0.533794 0.000000 0.000000 0.000000 -1.068345 0.202870 0.345766 8.427408 -0.679077 0.101688 -32.392951 3.975463 9.043001 25.309074 -5.804314 -6.889478 0.000000 0.000000 0.000000 0.000000 0.000000 0.000000 12.336010 0.176095 -2.675582 8.933437 36.331972 -0.270000 -5.879797 0.856976 -25.439583 27.006938 2.150978 13.871109 0.000000 0.000000 0.000000 0.000000 0.000000 0.000000 0.677426 2.729987 31.415680 -1.729581 0.121331 -0.378485 18.755415 -15.318038 -21.921213 0.000000 0.000000 0.000000 1.581348 1.717539 29.620680 -1.537935 -0.454229 1.043236 2.519510 6.039887 2.829229 0.000000 0.000000 0.000000
